<svg id="Layer_1" data-name="Layer 1" xmlns="http://www.w3.org/2000/svg" xmlns:xlink="http://www.w3.org/1999/xlink" width="41.83" height="21.1" viewBox="0 0 41.83 21.1">
  <defs>
    <style>
      .cls-1 {
        fill: none;
      }

      .cls-2 {
        clip-path: url(#clip-path);
      }

      .cls-3 {
        fill: #fff;
      }
    </style>
    <clipPath id="clip-path" transform="translate(0 0)">
      <rect class="cls-1" width="41.83" height="21.1"/>
    </clipPath>
  </defs>
  <g class="cls-2">
    <path class="cls-3" d="M9.34.75.15,19.13a1.35,1.35,0,0,0,1.21,2H19.74a1.36,1.36,0,0,0,1.22-2L11.77.75a1.36,1.36,0,0,0-2.43,0" transform="translate(0 0)"/>
    <path class="cls-3" d="M21.94,5.53V19.16a1,1,0,0,0,1.48.84l11.36-6.82a1,1,0,0,0,0-1.67L23.42,4.69a1,1,0,0,0-1.48.84" transform="translate(0 0)"/>
    <path class="cls-3" d="M36.22,11.76,41,6.94a.47.47,0,0,1,.8.33v4.82a.47.47,0,0,1-.47.47H36.55a.47.47,0,0,1-.33-.8" transform="translate(0 0)"/>
  </g>
</svg>
