<?xml version="1.0" encoding="utf-8"?>
<!-- Generator: Adobe Illustrator 24.1.0, SVG Export Plug-In . SVG Version: 6.00 Build 0)  -->
<svg version="1.1" id="Layer_1" xmlns="http://www.w3.org/2000/svg" xmlns:xlink="http://www.w3.org/1999/xlink" x="0px" y="0px"
	 width="129px" height="110px" viewBox="0 0 107.6 92.3" style="enable-background:new 0 0 107.6 92.3;" xml:space="preserve">
<style type="text/css">
	.Drop_x0020_Shadow{fill:none;}
	.Outer_x0020_Glow_x0020_5_x0020_pt{fill:none;}
	.Blue_x0020_Neon{fill:none;stroke:#8AACDA;stroke-width:7;stroke-linecap:round;stroke-linejoin:round;}
	.Chrome_x0020_Highlight{fill:url(#SVGID_1_);stroke:#FFFFFF;stroke-width:0.3629;stroke-miterlimit:1;}
	.Jive_GS{fill:#FFDD00;}
	.Alyssa_GS{fill:#A6D0E4;}
	.st0{clip-path:url(#SVGID_3_);fill:url(#SVGID_4_);}
	.st1{clip-path:url(#SVGID_6_);fill:url(#SVGID_7_);}
	.st2{clip-path:url(#SVGID_9_);fill:#004976;}
</style>
<linearGradient id="SVGID_1_" gradientUnits="userSpaceOnUse" x1="-917.3578" y1="-505.2267" x2="-917.3578" y2="-506.2267">
	<stop  offset="0" style="stop-color:#656565"/>
	<stop  offset="0.618" style="stop-color:#1B1B1B"/>
	<stop  offset="0.6292" style="stop-color:#545454"/>
	<stop  offset="0.9831" style="stop-color:#3E3E3E"/>
</linearGradient>
<g>
	<defs>
		<path id="SVGID_2_" d="M27,0c-1.2,0-2.4,0.7-3,1.9L0.4,49.1c-0.3,0.5-0.4,1-0.4,1.5v0.1c0,1.8,1.5,3.5,3.5,3.5h47.2
			c2.6,0,4.3-2.7,3.1-5L30.2,1.9c-0.6-1.3-1.8-1.9-3-1.9H27z"/>
	</defs>
	<clipPath id="SVGID_3_">
		<use xlink:href="#SVGID_2_"  style="overflow:visible;"/>
	</clipPath>
	
		<linearGradient id="SVGID_4_" gradientUnits="userSpaceOnUse" x1="-911.1411" y1="575.7828" x2="-910.1411" y2="575.7828" gradientTransform="matrix(175.3437 -93.2588 -93.2588 -175.3437 213408.9219 16056.6709)">
		<stop  offset="0" style="stop-color:#74D1EA"/>
		<stop  offset="0.3212" style="stop-color:#74D1EA"/>
		<stop  offset="0.4129" style="stop-color:#52A9C8"/>
		<stop  offset="0.5243" style="stop-color:#2F80A5"/>
		<stop  offset="0.6254" style="stop-color:#15628B"/>
		<stop  offset="0.7119" style="stop-color:#06507C"/>
		<stop  offset="0.7734" style="stop-color:#004976"/>
		<stop  offset="1" style="stop-color:#004976"/>
	</linearGradient>
	<polygon class="st0" points="-22.4,11.9 42.8,-22.8 77.4,42.2 12.1,76.9 	"/>
</g>
<g>
	<defs>
		<path id="SVGID_5_" d="M56.3,14.2v35c0,2,2.1,3.2,3.8,2.2l29.2-17.5c1.6-1,1.6-3.3,0-4.3L60.1,12c-0.4-0.2-0.9-0.4-1.3-0.4
			C57.5,11.7,56.3,12.7,56.3,14.2"/>
	</defs>
	<clipPath id="SVGID_6_">
		<use xlink:href="#SVGID_5_"  style="overflow:visible;"/>
	</clipPath>
	
		<linearGradient id="SVGID_7_" gradientUnits="userSpaceOnUse" x1="-911.0157" y1="575.7182" x2="-910.0157" y2="575.7182" gradientTransform="matrix(171.2287 -91.0702 -91.0702 -171.2287 208388.2188 15702.667)">
		<stop  offset="0" style="stop-color:#74D1EA"/>
		<stop  offset="0.3212" style="stop-color:#74D1EA"/>
		<stop  offset="0.4129" style="stop-color:#52A9C8"/>
		<stop  offset="0.5243" style="stop-color:#2F80A5"/>
		<stop  offset="0.6254" style="stop-color:#15628B"/>
		<stop  offset="0.7119" style="stop-color:#06507C"/>
		<stop  offset="0.7734" style="stop-color:#004976"/>
		<stop  offset="1" style="stop-color:#004976"/>
	</linearGradient>
	<polygon class="st1" points="39.5,20.6 83.3,-2.7 107.7,43.4 63.9,66.7 	"/>
</g>
<g>
	<defs>
		<rect id="SVGID_8_" width="107.6" height="92.3"/>
	</defs>
	<clipPath id="SVGID_9_">
		<use xlink:href="#SVGID_8_"  style="overflow:visible;"/>
	</clipPath>
	<path class="st2" d="M93,30.2l12.4-12.4c0.8-0.8,2-0.2,2,0.8V31c0,0.7-0.5,1.2-1.2,1.2H93.8C92.7,32.2,92.2,30.9,93,30.2"/>
	<path class="st2" d="M91.8,59.7c2.3,2.1,3.4,4.9,3.4,8.6c0,3.7-1.1,6.6-3.3,8.7c-2.2,2.1-5.6,3.2-10.1,3.2h-8.1V56.6h8.4
		C86.3,56.6,89.6,57.6,91.8,59.7 M87.9,73.7c1.3-1.2,1.9-3,1.9-5.3c0-2.3-0.6-4.1-1.9-5.4c-1.3-1.3-3.3-1.9-6-1.9H79v14.4h3.4
		C84.8,75.6,86.6,75,87.9,73.7"/>
	<polygon class="st2" points="50.7,84.1 52.5,84.1 52.5,92.2 50.7,92.2 50.7,89 47.4,89 47.4,92.2 45.6,92.2 45.6,84.1 47.4,84.1 
		47.4,87.5 50.7,87.5 	"/>
	<path class="st2" d="M61.1,91.1c-0.8,0.8-1.8,1.2-3.1,1.2c-1.2,0-2.2-0.4-3.1-1.2c-0.8-0.8-1.2-1.8-1.2-3c0-1.2,0.4-2.2,1.2-3
		c0.8-0.8,1.8-1.2,3.1-1.2c1.2,0,2.2,0.4,3.1,1.2c0.8,0.8,1.2,1.8,1.2,3C62.4,89.3,62,90.3,61.1,91.1 M60.5,88.1
		c0-0.7-0.2-1.3-0.7-1.9c-0.5-0.5-1-0.8-1.7-0.8c-0.7,0-1.3,0.3-1.7,0.8c-0.5,0.5-0.7,1.1-0.7,1.9c0,0.7,0.2,1.3,0.7,1.9
		c0.5,0.5,1,0.8,1.7,0.8c0.7,0,1.3-0.3,1.7-0.8C60.3,89.4,60.5,88.8,60.5,88.1"/>
	<polygon class="st2" points="63.7,92.2 63.7,84.1 65.5,84.1 65.5,90.6 69,90.6 69,92.2 	"/>
	<path class="st2" d="M76.6,85.1c0.8,0.7,1.2,1.7,1.2,3c0,1.3-0.4,2.3-1.1,3c-0.8,0.7-1.9,1.1-3.5,1.1h-2.8v-8.2h2.9
		C74.7,84.1,75.8,84.4,76.6,85.1 M75.2,90c0.4-0.4,0.7-1,0.7-1.8c0-0.8-0.2-1.4-0.7-1.9c-0.4-0.4-1.1-0.6-2.1-0.6h-1v5h1.2
		C74.1,90.6,74.8,90.4,75.2,90"/>
	<rect x="79.3" y="84.1" class="st2" width="1.8" height="8.2"/>
	<polygon class="st2" points="89.1,84.1 90.9,84.1 90.9,92.2 89.1,92.2 85.2,87.1 85.2,92.2 83.4,92.2 83.4,84.1 85.1,84.1 
		89.1,89.3 	"/>
	<path class="st2" d="M98.2,88.1h1.8V91c-0.8,0.9-1.9,1.4-3.4,1.4c-1.2,0-2.2-0.4-3-1.2c-0.8-0.8-1.2-1.8-1.2-3c0-1.2,0.4-2.2,1.2-3
		c0.8-0.8,1.8-1.2,3-1.2c1.2,0,2.2,0.4,3.1,1.2l-0.9,1.4c-0.4-0.3-0.7-0.5-1-0.7c-0.3-0.1-0.6-0.2-1-0.2c-0.7,0-1.3,0.2-1.8,0.7
		c-0.5,0.5-0.7,1.1-0.7,1.9c0,0.8,0.2,1.4,0.7,1.9c0.5,0.5,1,0.7,1.6,0.7c0.6,0,1.2-0.1,1.6-0.4V88.1z"/>
	<path class="st2" d="M103.6,85.7c-0.2,0.1-0.3,0.3-0.3,0.6s0.1,0.4,0.3,0.6c0.2,0.1,0.7,0.3,1.5,0.5c0.8,0.2,1.4,0.5,1.8,0.9
		c0.4,0.4,0.6,0.9,0.6,1.7s-0.3,1.3-0.8,1.8c-0.5,0.5-1.3,0.7-2.2,0.7c-1.3,0-2.5-0.5-3.5-1.4l1.1-1.3c0.9,0.8,1.7,1.2,2.4,1.2
		c0.3,0,0.6-0.1,0.8-0.2c0.2-0.1,0.3-0.3,0.3-0.6c0-0.2-0.1-0.4-0.3-0.6c-0.2-0.1-0.6-0.3-1.2-0.4c-1-0.2-1.6-0.5-2.1-0.9
		c-0.4-0.4-0.7-0.9-0.7-1.7c0-0.8,0.3-1.4,0.8-1.8c0.6-0.4,1.3-0.6,2.1-0.6c0.5,0,1.1,0.1,1.6,0.3c0.5,0.2,1,0.5,1.4,0.8l-0.9,1.3
		c-0.7-0.5-1.4-0.8-2.2-0.8C104,85.5,103.8,85.5,103.6,85.7"/>
	<path class="st2" d="M106.1,57l-8.2,8.2c-0.5,0.5-0.1,1.4,0.6,1.4h3.9v13.7h5.1V66.8v-1.1V60v-1.5v-1
		C107.5,56.8,106.6,56.5,106.1,57"/>
	<path class="st2" d="M65.4,80.2l-2.2-5.1h-9.9L51,80.2h-5.6l9.4-21.8c0.5-1.1,1.6-1.9,2.8-1.9h1.2c1.2,0,2.2,0.7,2.7,1.7L71,80.2
		H65.4z M58.2,63.6l-3,6.9h5.9L58.2,63.6z"/>
</g>
</svg>
