<?xml version="1.0" encoding="utf-8"?>
<!-- Generator: Adobe Illustrator 24.1.0, SVG Export Plug-In . SVG Version: 6.00 Build 0)  -->
<svg version="1.1" id="Layer_1" xmlns="http://www.w3.org/2000/svg" xmlns:xlink="http://www.w3.org/1999/xlink" x="0px" y="0px"
	 width="128.5px" height="110.2px" viewBox="0 0 128.5 110.2" style="enable-background:new 0 0 128.5 110.2;" xml:space="preserve"
	>
<style type="text/css">
	.Drop_x0020_Shadow{fill:none;}
	.Outer_x0020_Glow_x0020_5_x0020_pt{fill:none;}
	.Blue_x0020_Neon{fill:none;stroke:#8AACDA;stroke-width:7;stroke-linecap:round;stroke-linejoin:round;}
	.Chrome_x0020_Highlight{fill:url(#SVGID_1_);stroke:#FFFFFF;stroke-width:0.3629;stroke-miterlimit:1;}
	.Jive_GS{fill:#FFDD00;}
	.Alyssa_GS{fill:#A6D0E4;}
	.st0{fill:#FFFFFF;}
</style>
<linearGradient id="SVGID_1_" gradientUnits="userSpaceOnUse" x1="-896.5295" y1="-485.0578" x2="-896.5295" y2="-486.0578">
	<stop  offset="0" style="stop-color:#656565"/>
	<stop  offset="0.618" style="stop-color:#1B1B1B"/>
	<stop  offset="0.6292" style="stop-color:#545454"/>
	<stop  offset="0.9831" style="stop-color:#3E3E3E"/>
</linearGradient>
<path class="st0" d="M28.6,2.3L0.4,58.6c-1.4,2.8,0.6,6,3.7,6h56.3c3.1,0,5.1-3.3,3.7-6L36.1,2.3C34.5-0.8,30.1-0.8,28.6,2.3z"/>
<path class="st0" d="M67.2,16.9v41.8c0,2.3,2.5,3.8,4.5,2.6l34.8-20.9c1.9-1.2,1.9-4,0-5.1L71.8,14.4C69.8,13.2,67.2,14.6,67.2,16.9
	z"/>
<path class="st0" d="M111,36l14.8-14.8c0.9-0.9,2.4-0.3,2.4,1v14.8c0,0.8-0.6,1.4-1.4,1.4H112C110.7,38.5,110.1,36.9,111,36z"/>
<path class="st0" d="M109.6,71.3c2.7,2.5,4,5.9,4,10.3c0,4.4-1.3,7.9-3.9,10.4s-6.6,3.8-12,3.8H88V67.6h10
	C103.1,67.6,106.9,68.8,109.6,71.3z M105,88.1c1.6-1.5,2.3-3.6,2.3-6.3s-0.8-4.9-2.3-6.4c-1.6-1.5-3.9-2.2-7.1-2.2h-3.5v17.2h4
	C101.2,90.2,103.4,89.5,105,88.1z"/>
<g>
	<path class="st0" d="M60.5,100.4h2.2v9.8h-2.2v-3.8h-3.9v3.8h-2.2v-9.8h2.2v4.1h3.9V100.4z"/>
	<path class="st0" d="M73,108.8c-1,1-2.2,1.4-3.6,1.4c-1.4,0-2.7-0.5-3.6-1.4c-1-1-1.5-2.2-1.5-3.6c0-1.4,0.5-2.6,1.5-3.6
		c1-1,2.2-1.4,3.6-1.4c1.4,0,2.7,0.5,3.6,1.4c1,1,1.5,2.2,1.5,3.6C74.5,106.6,74,107.8,73,108.8z M72.3,105.2c0-0.9-0.3-1.6-0.8-2.2
		c-0.6-0.6-1.2-0.9-2.1-0.9s-1.5,0.3-2.1,0.9c-0.6,0.6-0.8,1.4-0.8,2.2c0,0.9,0.3,1.6,0.8,2.2c0.6,0.6,1.2,0.9,2.1,0.9
		s1.5-0.3,2.1-0.9S72.3,106.1,72.3,105.2z"/>
	<path class="st0" d="M76,110.1v-9.8h2.2v7.8h4.2v1.9H76z"/>
	<path class="st0" d="M91.4,101.6c0.9,0.9,1.4,2,1.4,3.6s-0.5,2.7-1.4,3.6c-0.9,0.9-2.3,1.3-4.2,1.3H84v-9.8h3.4
		C89.2,100.4,90.5,100.8,91.4,101.6z M89.8,107.5c0.5-0.5,0.8-1.2,0.8-2.2c0-1-0.3-1.7-0.8-2.2c-0.5-0.5-1.4-0.8-2.5-0.8h-1.2v5.9
		h1.4C88.5,108.2,89.3,108,89.8,107.5z"/>
	<path class="st0" d="M94.7,100.4h2.2v9.8h-2.2V100.4z"/>
	<path class="st0" d="M106.4,100.4h2.2v9.8h-2.2l-4.6-6.1v6.1h-2.2v-9.8h2l4.8,6.3V100.4z"/>
	<path class="st0" d="M117.2,105.2h2.2v3.5c-1,1.1-2.3,1.6-4,1.6c-1.4,0-2.6-0.5-3.6-1.4c-1-0.9-1.5-2.1-1.5-3.6
		c0-1.4,0.5-2.7,1.5-3.6c1-1,2.2-1.5,3.6-1.5s2.6,0.5,3.7,1.4l-1.1,1.6c-0.4-0.4-0.8-0.6-1.2-0.8c-0.4-0.1-0.8-0.2-1.2-0.2
		c-0.8,0-1.5,0.3-2.1,0.8c-0.6,0.6-0.9,1.3-0.9,2.2c0,0.9,0.3,1.7,0.8,2.2c0.5,0.6,1.2,0.8,1.9,0.8c0.8,0,1.4-0.1,1.9-0.4V105.2z"/>
	<path class="st0" d="M123.7,102.3c-0.2,0.2-0.3,0.4-0.3,0.7c0,0.3,0.1,0.5,0.4,0.7c0.3,0.2,0.8,0.4,1.8,0.6c0.9,0.2,1.6,0.6,2.2,1
		c0.5,0.5,0.8,1.1,0.8,2c0,0.9-0.3,1.6-1,2.1c-0.7,0.5-1.5,0.8-2.6,0.8c-1.5,0-2.9-0.6-4.2-1.7l1.3-1.6c1.1,0.9,2,1.4,2.9,1.4
		c0.4,0,0.7-0.1,0.9-0.3c0.2-0.2,0.3-0.4,0.3-0.7c0-0.3-0.1-0.5-0.4-0.7c-0.2-0.2-0.7-0.3-1.4-0.5c-1.1-0.3-2-0.6-2.5-1.1
		c-0.5-0.4-0.8-1.1-0.8-2c0-0.9,0.3-1.6,1-2.1c0.7-0.5,1.5-0.8,2.5-0.8c0.7,0,1.3,0.1,2,0.3c0.7,0.2,1.2,0.5,1.7,0.9l-1.1,1.6
		c-0.8-0.6-1.7-1-2.6-1C124.2,102.1,123.9,102.1,123.7,102.3z"/>
</g>
<path class="st0" d="M126.7,68l-9.8,9.8c-0.6,0.6-0.2,1.6,0.7,1.6h4.7v16.4h6.1v-16v-1.3v-6.9v-1.7v-1.2
	C128.4,67.9,127.3,67.4,126.7,68z"/>
<path class="st0" d="M78,95.8l-2.6-6.1H63.6l-2.6,6.1h-6.7l11.3-26.1c0.6-1.3,1.9-2.2,3.4-2.2h1.4c1.4,0,2.6,0.8,3.2,2.1l11.3,26.2
	H78z M69.5,76l-3.6,8.2H73L69.5,76z"/>
</svg>
