<?xml version="1.0" encoding="utf-8"?>
<!-- Generator: Adobe Illustrator 24.1.0, SVG Export Plug-In . SVG Version: 6.00 Build 0)  -->
<svg version="1.1" id="Layer_1" xmlns="http://www.w3.org/2000/svg" xmlns:xlink="http://www.w3.org/1999/xlink" x="0px" y="0px"
	 viewBox="0 0 21.7 21.7" style="enable-background:new 0 0 21.7 21.7;" xml:space="preserve">
<style type="text/css">
	.st0{fill:#0a4b71;}
</style>
<g>
	<path class="st0" d="M8.7,2.4C7,2.4,5.5,3.1,4.3,4.3c-2.4,2.4-2.4,6.4,0,8.9c2.4,2.4,6.4,2.4,8.9,0C14.3,12,15,10.4,15,8.7
		c0-1.7-0.7-3.3-1.8-4.4h0C12,3.1,10.4,2.4,8.7,2.4 M8.7,17.4c-2.2,0-4.5-0.8-6.2-2.5c-3.4-3.4-3.4-8.9,0-12.3C4.2,0.9,6.4,0,8.7,0
		c2.3,0,4.5,0.9,6.2,2.6c1.6,1.6,2.5,3.8,2.5,6.2c0,2.3-0.9,4.5-2.5,6.2C13.2,16.6,10.9,17.4,8.7,17.4"/>
</g>
<rect x="16.2" y="12.4" transform="matrix(0.7071 -0.7071 0.7071 0.7071 -7.1965 17.3666)" class="st0" width="2.4" height="9.9"/>
</svg>
